# xmcd
#
# Track frame offsets:
#	150
#	41514
#	87333
#	103774
#	146780
#	167937
#	193236
#	233439
#	259845
#
# Disc length: 3976 seconds
#
# Revision: 1
# Processed by: cddbd v1.5.2PL0 Copyright (c) Steve Scherf et al.
# Submitted via: audiograbber 1.83.01
#
DISCID=7c0f8609
DTITLE=Beethoven - Sonates 21&22&23 P Bouyer
DYEAR=1900
DGENRE=Classique
TTITLE0=Andante"Favori" opus 57
TTITLE1=Sonate n°21 ut M opus 53
TTITLE2=Sonate n°21 ut M opus 53
TTITLE3=Sonate n°21 ut M opus 53
TTITLE4=Sonate n°22 Fa M opus 54
TTITLE5=Sonate n°22 Fa M opus 54
TTITLE6=Sonate n°23 "Appassionata" Fa Mineur opus57 
TTITLE7=Sonate n°23 "Appassionata" Fa Mineur opus57 
TTITLE8=Sonate n°23 "Appassionata" Fa Mineur opus57 
EXTD=
EXTT0=
EXTT1=
EXTT2=
EXTT3=
EXTT4=
EXTT5=
EXTT6=
EXTT7=
EXTT8=
PLAYORDER=
